<?xml version="1.0" encoding="utf-8"?>
<!DOCTYPE svg PUBLIC "-//W3C//DTD SVG 1.1//EN" "http://www.w3.org/Graphics/SVG/1.1/DTD/svg11.dtd">
<svg version="1.1" id="Ebene_1" xmlns="http://www.w3.org/2000/svg" xmlns:xlink="http://www.w3.org/1999/xlink" x="0px" y="0px"
	 width="125px" height="50px" viewBox="0 0 125 50" xml:space="preserve">
<path fill="#5B5F5F" d="M52.115,46.92h1.202l0.009-2.537h0.367c0.174,0,0.309,0.063,0.419,0.221l1.757,2.445l1.044-0.623
	l-1.805-2.365c0.741-0.268,1.229-0.844,1.229-1.648c0-1.008-0.625-1.832-2.153-1.832h-2.005L52.115,46.92z M53.342,43.428
	l0.019-1.896h0.677c0.594,0,1.069,0.311,1.069,0.918c0,0.824-0.695,0.979-1.042,0.979H53.342L53.342,43.428z M58.038,43.703
	c0.697-0.539,0.972-0.633,1.201-0.633c0.312,0,0.532,0.102,0.532,0.611v0.303c-1.998,0.328-2.475,0.973-2.475,1.713
	c0,0.824,0.559,1.35,1.383,1.35c0.44,0,0.854-0.23,1.183-0.613c0.084,0.385,0.403,0.613,0.799,0.613
	c0.209,0,0.478-0.055,0.963-0.375l-0.267-0.561c-0.193,0.092-0.274,0.117-0.329,0.117c-0.12,0-0.249-0.184-0.249-0.439
	c0-0.189,0.01-0.369,0.018-0.578l0.037-1.328c0.01-0.117,0.01-0.221,0.01-0.385c0-0.896-0.633-1.328-1.32-1.328
	c-0.495,0-1.01,0.107-2.018,0.936L58.038,43.703z M59.742,45.775c-0.266,0.283-0.568,0.432-0.797,0.432
	c-0.35,0-0.586-0.201-0.586-0.541c0-0.467,0.339-0.725,1.4-0.963L59.742,45.775L59.742,45.775z M66.094,42.301h-1.117l-0.018,3.135
	c-0.283,0.275-0.67,0.607-1.018,0.607c-0.467,0-0.604-0.221-0.604-0.762c0-0.504,0.01-1.154,0.016-1.824l0.012-1.156h-1.119
	l-0.027,2.32c0,0.293-0.01,0.576-0.01,0.859c0,0.896,0.266,1.566,1.283,1.566c0.561,0,1.082-0.283,1.43-0.689h0.018v0.563h1.117
	L66.094,42.301z M67.301,46.92h1.109l0.035-3.125c0.191-0.236,0.623-0.613,0.953-0.613c0.348,0,0.559,0.223,0.559,0.568
	c0,0.246-0.008,0.879-0.008,1.355l-0.014,1.813h1.111l0.035-3.125c0.191-0.236,0.623-0.613,0.953-0.613
	c0.348,0,0.563,0.223,0.563,0.568c0,0.246-0.012,0.879-0.012,1.355l-0.01,1.813h1.119c0-1.135,0.01-2.279,0.01-3.416
	c0-0.59-0.211-1.332-1.246-1.332c-0.588,0-1.166,0.313-1.514,0.789c-0.148-0.541-0.586-0.789-1.129-0.789
	c-0.566,0-1.09,0.324-1.373,0.762l-0.02-0.02v-0.611h-1.109L67.301,46.92L67.301,46.92z M78.67,44.748
	c0-1.613-0.605-2.576-1.904-2.576c-1.348,0-2.107,1.229-2.107,2.457c0,1.449,0.844,2.422,2.018,2.422
	c0.752,0,1.396-0.369,1.877-0.908l-0.641-0.586c-0.283,0.303-0.631,0.596-1.072,0.596c-0.771,0-1.055-0.77-1.063-1.4L78.67,44.748
	L78.67,44.748L78.67,44.748z M75.828,43.961c0.047-0.457,0.432-1,0.938-1c0.584,0,0.814,0.504,0.846,1H75.828z M79.5,46.92h1.123
	l0.02-3.133c0.283-0.275,0.67-0.607,1.016-0.607c0.469,0,0.605,0.201,0.605,0.771c0,0.549-0.008,1.1-0.018,1.814l-0.014,1.154h1.117
	l0.027-2.318c0-0.295,0.012-0.576,0.012-1.037c0-0.715-0.256-1.395-1.229-1.395c-0.613,0-1.135,0.283-1.494,0.688h-0.018v-0.563
	h-1.105L79.5,46.92L79.5,46.92z M86.793,45.986c-0.154,0.107-0.318,0.221-0.514,0.221c-0.273,0-0.375-0.186-0.375-0.484
	c0-0.342,0-0.764,0.01-1.223l0.029-1.354h1.023v-0.846l-1.031,0.018l0.037-1.648h-1.119l-0.035,1.648l-0.619-0.018v0.846h0.625
	l-0.025,1.41c-0.012,0.402-0.012,0.896-0.012,1.107c0,0.98,0.488,1.387,1.254,1.387c0.139,0,0.402-0.02,0.695-0.184l0.375-0.203
	L86.793,45.986L86.793,45.986z M88.572,46.92h1.127l0.896-3.381h0.02l0.814,3.381h1.137l1.482-4.408l-1.035-0.34l-0.936,3.385
	h-0.018l-0.852-3.256h-1.184l-0.906,3.256h-0.021l-0.844-3.385l-1.1,0.275 M94.859,46.92h1.117l0.049-4.617h-1.119L94.859,46.92z
	 M94.902,41.66h1.115l0.012-1.082h-1.117L94.902,41.66z M100.16,45.582c-0.254,0.268-0.529,0.514-0.941,0.514
	c-0.561,0-0.99-0.539-0.99-1.512c0-0.705,0.348-1.459,1.043-1.459c0.396,0,0.652,0.211,0.936,0.441l0.635-0.613
	c-0.414-0.459-0.936-0.777-1.613-0.777c-1.373,0-2.174,1.234-2.174,2.51c0,1.119,0.688,2.365,2.01,2.365
	c0.73,0,1.275-0.33,1.725-0.881L100.16,45.582L100.16,45.582z M101.385,46.92h1.117v-2.264h0.018l1.846,2.549l0.918-0.633
	l-1.615-2.063l1.615-1.814l-0.801-0.67l-1.963,2.43h-0.018l0.057-4.41h-1.119 M106.049,46.92h1.119l0.055-6.875h-1.117
	 M112.408,42.301h-1.119l-0.021,3.135c-0.281,0.275-0.668,0.607-1.014,0.607c-0.467,0-0.609-0.223-0.609-0.762
	c0-0.504,0.014-1.156,0.021-1.824l0.012-1.156h-1.115l-0.029,2.32c0,0.291-0.012,0.576-0.012,0.859c0,0.896,0.268,1.566,1.283,1.566
	c0.561,0,1.082-0.283,1.43-0.689h0.02v0.563h1.117L112.408,42.301L112.408,42.301z M113.602,46.92h1.121l0.018-3.133
	c0.285-0.275,0.67-0.607,1.02-0.607c0.467,0,0.605,0.201,0.605,0.771c0,0.549-0.01,1.1-0.018,1.814l-0.012,1.154h1.119l0.025-2.318
	c0-0.295,0.012-0.576,0.012-1.037c0-0.715-0.258-1.395-1.23-1.395c-0.615,0-1.137,0.283-1.494,0.688h-0.016v-0.563h-1.107
	L113.602,46.92L113.602,46.92z M123.125,43.059V42.34l-1.492,0.029c-0.275-0.105-0.506-0.197-1.027-0.197
	c-0.953,0-1.787,0.578-1.787,1.568c0,0.447,0.193,0.842,0.635,1.08c-0.773,0.486-1.082,0.688-1.082,1.092
	c0,0.445,0.566,0.549,0.988,0.643v0.018c-0.486,0.248-0.988,0.541-0.988,1.209c0,0.67,0.611,1.354,2.086,1.354
	c1.166,0,2.521-0.635,2.521-1.896c0-1.146-1.09-1.283-2.127-1.375c-1.035-0.09-1.32-0.129-1.32-0.326
	c0-0.168,0.23-0.295,0.404-0.422c0.174,0.057,0.463,0.117,0.844,0.117c0.879,0,1.705-0.537,1.705-1.494
	c0-0.268-0.092-0.516-0.266-0.707L123.125,43.059L123.125,43.059z M119.32,47.627c0-0.441,0.447-0.689,0.807-0.908
	c1.604,0.193,1.787,0.248,1.787,0.732c0,0.479-0.566,0.971-1.365,0.971C120.061,48.426,119.32,48.223,119.32,47.627L119.32,47.627z
	 M120.695,42.887c0.447,0,0.727,0.367,0.727,0.811c0,0.484-0.248,0.822-0.754,0.822c-0.531,0-0.787-0.375-0.787-0.777
	C119.879,43.234,120.184,42.887,120.695,42.887L120.695,42.887z M52.331,36.037h1.128V32.26h0.98v-0.844h-0.953v-0.631
	c0-0.578,0.293-0.799,0.704-0.799h0.257V29.09h-0.358c-1.135,0-1.741,0.73-1.741,1.729v0.598h-0.733v0.844h0.733L52.331,36.037
	L52.331,36.037z M57.294,30.701h1.01v-1.008h-1.01V30.701z M55.663,30.701h1.011v-1.008h-1.011V30.701z M58.936,31.418h-1.116
	L57.8,34.553c-0.285,0.273-0.67,0.607-1.018,0.607c-0.465,0-0.605-0.225-0.605-0.764c0-0.504,0.01-1.154,0.019-1.824l0.009-1.154
	h-1.118l-0.026,2.316c0,0.295-0.01,0.576-0.01,0.863c0,0.896,0.264,1.564,1.281,1.564c0.561,0,1.082-0.283,1.43-0.688h0.019v0.561
	h1.118L58.936,31.418z M60.109,36.037h1.127l0.028-2.859c0.229-0.486,0.539-0.807,0.971-0.807c0.083,0,0.175,0.02,0.267,0.035
	l0.183-1.068c-0.108-0.029-0.219-0.047-0.33-0.047c-0.566,0.018-0.853,0.457-1.072,0.99l-0.01-0.018v-0.846h-1.117L60.109,36.037
	L60.109,36.037z M67.898,30.701h1.008v-1.008h-1.008V30.701z M66.268,30.701h1.008v-1.008h-1.008V30.701z M65.377,33.727
	c0,1.313,0.707,2.439,2.209,2.439c1.395,0,2.207-1.127,2.207-2.439c0-1.367-0.744-2.438-2.207-2.438
	C66.229,31.289,65.377,32.508,65.377,33.727z M66.496,33.762c0-0.643,0.256-1.574,1.09-1.574c0.752,0,1.09,0.611,1.09,1.574
	c0,0.645-0.283,1.504-1.09,1.504C66.752,35.266,66.496,34.322,66.496,33.762z M70.709,36.037h1.117v-2.266h0.02l1.84,2.549
	l0.918-0.633l-1.611-2.063l1.611-1.814l-0.797-0.668l-1.961,2.43h-0.02l0.057-4.41h-1.117 M74.998,33.727
	c0,1.313,0.705,2.439,2.209,2.439c1.393,0,2.207-1.127,2.207-2.439c0-1.367-0.744-2.438-2.207-2.438
	C75.852,31.289,74.998,32.508,74.998,33.727z M76.117,33.762c0-0.643,0.256-1.574,1.09-1.574c0.752,0,1.088,0.611,1.088,1.574
	c0,0.645-0.283,1.504-1.088,1.504C76.373,35.266,76.117,34.322,76.117,33.762z M80.412,36.037h1.117l0.055-6.875h-1.115
	 M82.58,33.727c0,1.313,0.705,2.439,2.207,2.439c1.396,0,2.211-1.127,2.211-2.439c0-1.367-0.742-2.438-2.211-2.438
	C83.434,31.289,82.58,32.508,82.58,33.727z M83.699,33.762c0-0.643,0.254-1.574,1.088-1.574c0.752,0,1.09,0.611,1.09,1.574
	c0,0.645-0.281,1.504-1.09,1.504C83.953,35.266,83.699,34.322,83.699,33.762z M92.338,32.172v-0.713l-1.494,0.025
	c-0.271-0.104-0.502-0.195-1.025-0.195c-0.951,0-1.785,0.578-1.785,1.566c0,0.447,0.191,0.844,0.633,1.08
	c-0.771,0.486-1.084,0.689-1.084,1.092c0,0.447,0.568,0.551,0.992,0.643v0.018c-0.488,0.248-0.992,0.541-0.992,1.211
	s0.615,1.354,2.09,1.354c1.162,0,2.52-0.631,2.52-1.896c0-1.145-1.09-1.281-2.127-1.373c-1.033-0.092-1.32-0.129-1.32-0.328
	c0-0.166,0.229-0.295,0.402-0.422c0.178,0.059,0.469,0.119,0.846,0.119c0.881,0,1.707-0.539,1.707-1.496
	c0-0.268-0.094-0.516-0.27-0.705L92.338,32.172L92.338,32.172z M88.535,36.742c0-0.441,0.447-0.688,0.809-0.906
	c1.604,0.189,1.787,0.246,1.787,0.73c0,0.477-0.568,0.973-1.367,0.973C89.277,37.539,88.535,37.338,88.535,36.742L88.535,36.742z
	 M89.91,32.004c0.447,0,0.727,0.367,0.727,0.807c0,0.484-0.248,0.822-0.752,0.822c-0.533,0-0.787-0.373-0.787-0.775
	C89.094,32.352,89.395,32.004,89.91,32.004z M93.063,36.037h1.117l0.045-4.619h-1.115L93.063,36.037z M93.104,30.775h1.119
	l0.008-1.082h-1.115L93.104,30.775z M95.256,35.725c0.477,0.283,1.025,0.439,1.588,0.439c0.896,0,1.738-0.484,1.738-1.477
	c0-1.678-2.205-1.129-2.205-2.008c0-0.373,0.393-0.551,0.715-0.551c0.336,0,0.752,0.164,1.014,0.367l0.479-0.703
	c-0.412-0.348-1.035-0.504-1.566-0.504c-0.895,0-1.703,0.477-1.703,1.43c0,1.85,2.154,1.135,2.154,2.063
	c0,0.377-0.303,0.543-0.643,0.543c-0.42,0-0.799-0.178-1.156-0.387L95.256,35.725L95.256,35.725z M102.363,34.697
	c-0.256,0.268-0.531,0.514-0.939,0.514c-0.563,0-0.99-0.539-0.99-1.514c0-0.703,0.348-1.455,1.045-1.455
	c0.395,0,0.652,0.207,0.936,0.438l0.631-0.611c-0.412-0.459-0.936-0.779-1.609-0.779c-1.375,0-2.174,1.236-2.174,2.514
	c0,1.117,0.689,2.363,2.008,2.363c0.732,0,1.273-0.328,1.725-0.879L102.363,34.697L102.363,34.697z M103.559,36.037h1.119
	l0.021-3.137c0.279-0.273,0.67-0.605,1.016-0.605c0.467,0,0.604,0.266,0.604,0.623c0,0.369-0.01,1.248-0.018,1.963l-0.012,1.156
	h1.119l0.025-2.318c0-0.293,0.012-0.578,0.012-1.037c0-0.715-0.258-1.395-1.229-1.395c-0.613,0-1.135,0.281-1.492,0.688h-0.02
	l0.02-2.813h-1.123L103.559,36.037z M112.377,33.865c0-1.615-0.605-2.576-1.904-2.576c-1.35,0-2.109,1.229-2.109,2.455
	c0,1.449,0.844,2.42,2.018,2.42c0.752,0,1.395-0.367,1.877-0.906l-0.641-0.586c-0.283,0.303-0.633,0.596-1.072,0.596
	c-0.771,0-1.055-0.771-1.063-1.398h2.896v-0.004H112.377z M109.535,33.074c0.045-0.455,0.434-0.998,0.938-0.998
	c0.586,0,0.814,0.506,0.844,0.998H109.535z M52.173,24.417h3.658V23.41h-2.483l0.055-5.335H52.23 M60.352,22.246
	c0-1.612-0.606-2.574-1.906-2.574c-1.35,0-2.109,1.229-2.109,2.455c0,1.447,0.844,2.419,2.018,2.419
	c0.752,0,1.394-0.365,1.877-0.905l-0.641-0.586c-0.283,0.301-0.633,0.596-1.072,0.596c-0.771,0-1.056-0.771-1.063-1.401
	L60.352,22.246L60.352,22.246L60.352,22.246z M57.509,21.458c0.045-0.458,0.431-0.999,0.935-0.999c0.586,0,0.815,0.505,0.844,0.999
	H57.509L57.509,21.458z M61.271,24.417h1.117l0.047-4.619h-1.118L61.271,24.417z M61.312,19.157h1.119l0.008-1.082h-1.116
	L61.312,19.157z M64.801,21.229c0.238-0.367,0.504-0.605,0.926-0.605c0.725,0,1.037,0.753,1.037,1.458
	c0,0.727-0.404,1.513-1.229,1.513c-0.313,0-0.623-0.184-0.744-0.355L64.801,21.229L64.801,21.229z M63.684,24.417h1.072v-0.402h0.02
	c0.209,0.384,0.623,0.531,1.063,0.531c1.301,0,2.041-1.396,2.041-2.566c0-1.254-0.725-2.31-1.861-2.31
	c-0.564,0-0.998,0.257-1.199,0.704l-0.02-0.019l0.037-2.813h-1.117L63.684,24.417L63.684,24.417z M68.816,24.417h1.121l0.021-3.134
	c0.283-0.274,0.668-0.605,1.018-0.605c0.465,0,0.604,0.202,0.604,0.771c0,0.55-0.01,1.1-0.02,1.813l-0.008,1.156h1.117l0.029-2.317
	c0-0.294,0.008-0.578,0.008-1.037c0-0.715-0.254-1.394-1.229-1.394c-0.613,0-1.137,0.283-1.494,0.688h-0.02v-0.561h-1.105
	L68.816,24.417L68.816,24.417z M74,24.417h1.119l0.045-4.619h-1.117L74,24.417z M74.041,19.157h1.119l0.01-1.082h-1.117
	L74.041,19.157z M76.412,24.417h3.17v-0.897h-2.043l2.152-3.062l-0.34-0.66h-3.162v0.898h2.025L76.08,23.76 M80.496,22.604h2.412
	v-1.008h-2.412 M84.141,24.417h1.174l0.059-6.341h-1.174 M86.627,24.417h1.121l0.021-3.134c0.283-0.274,0.67-0.605,1.018-0.605
	c0.467,0,0.604,0.202,0.604,0.771c0,0.55-0.008,1.1-0.016,1.813l-0.012,1.156h1.119l0.027-2.317c0-0.294,0.01-0.578,0.01-1.037
	c0-0.715-0.256-1.394-1.229-1.394c-0.615,0-1.139,0.283-1.496,0.688h-0.018v-0.561h-1.104L86.627,24.417L86.627,24.417z
	 M91.486,24.107c0.479,0.285,1.023,0.439,1.586,0.439c0.896,0,1.744-0.485,1.744-1.475c0-1.679-2.213-1.128-2.213-2.009
	c0-0.375,0.396-0.549,0.719-0.549c0.338,0,0.752,0.164,1.02,0.365l0.477-0.704c-0.414-0.349-1.039-0.506-1.566-0.506
	c-0.9,0-1.709,0.478-1.709,1.431c0,1.853,2.156,1.138,2.156,2.063c0,0.376-0.303,0.54-0.641,0.54c-0.422,0-0.801-0.175-1.156-0.386
	L91.486,24.107L91.486,24.107z M97.977,23.484c-0.156,0.109-0.318,0.222-0.512,0.222c-0.275,0-0.375-0.185-0.375-0.486
	c0-0.34,0-0.762,0.008-1.219l0.027-1.356h1.025v-0.844l-1.029,0.018l0.037-1.647h-1.119l-0.035,1.647l-0.619-0.018v0.844h0.623
	l-0.029,1.412c-0.008,0.401-0.008,0.897-0.008,1.108c0,0.979,0.484,1.385,1.256,1.385c0.135,0,0.402-0.021,0.695-0.184l0.375-0.202
	L97.977,23.484L97.977,23.484z M98.918,24.417h1.119l0.045-4.619h-1.115L98.918,24.417z M98.959,19.157h1.117l0.016-1.082h-1.119
	L98.959,19.157L98.959,19.157z M103.57,23.484c-0.154,0.109-0.32,0.222-0.514,0.222c-0.273,0-0.375-0.185-0.375-0.486
	c0-0.34,0-0.762,0.012-1.219l0.027-1.356h1.025v-0.844l-1.031,0.018l0.035-1.647h-1.119l-0.035,1.647l-0.617-0.018v0.844h0.623
	l-0.027,1.412c-0.012,0.401-0.012,0.897-0.012,1.108c0,0.979,0.486,1.385,1.256,1.385c0.139,0,0.402-0.021,0.695-0.184l0.375-0.202
	L103.57,23.484z M108.32,19.8h-1.119l-0.018,3.135c-0.281,0.274-0.67,0.606-1.018,0.606c-0.467,0-0.605-0.222-0.605-0.763
	c0-0.504,0.012-1.153,0.02-1.823l0.012-1.155h-1.117l-0.029,2.319c0,0.294-0.008,0.577-0.008,0.86c0,0.897,0.266,1.567,1.283,1.567
	c0.561,0,1.08-0.284,1.428-0.688h0.018v0.561h1.119L108.32,19.8z M111.713,23.484c-0.154,0.109-0.322,0.222-0.514,0.222
	c-0.275,0-0.379-0.185-0.379-0.486c0-0.34,0-0.762,0.014-1.219l0.027-1.356h1.025v-0.844l-1.031,0.018l0.035-1.647h-1.115
	l-0.037,1.647l-0.615-0.018v0.844h0.623l-0.027,1.412c-0.01,0.401-0.01,0.897-0.01,1.108c0,0.979,0.484,1.385,1.256,1.385
	c0.135,0,0.398-0.021,0.695-0.184l0.375-0.202L111.713,23.484L111.713,23.484z"/>
<path fill="#86BC25" d="M29.36,12.176l3.191,13.939l-17.832,4.15V12.174"/>
<path fill="#006EB7" d="M1.875,6.946l24.959-5.813l1.969,8.6H12.276v21.104L7.591,31.93"/>
<path fill="#5B5F5F" d="M28.803,9.734h9.814v26.34h-26.34v-5.236l2.443-0.57v3.365h21.453V12.177h-6.813"/>
</svg>
